<svg xmlns="http://www.w3.org/2000/svg" viewBox="0 0 128 128">
  <defs>
    <linearGradient id="bubbleGradient" x1="24" y1="20" x2="112" y2="114" gradientUnits="userSpaceOnUse">
      <stop offset="0" stop-color="#5c3bff" />
      <stop offset="1" stop-color="#29c5ff" />
    </linearGradient>
    <linearGradient id="faceGradient" x1="40" y1="38" x2="84" y2="92" gradientUnits="userSpaceOnUse">
      <stop offset="0" stop-color="#0f1f6b" stop-opacity="0.5" />
      <stop offset="1" stop-color="#132a7a" stop-opacity="0.8" />
    </linearGradient>
  </defs>
  <path
    fill="url(#bubbleGradient)"
    d="M64 8c30.9 0 56 25.1 56 56 0 18.5-9 35.1-23.3 45.7L88 124l-25.8-8.6C34.9 107 8 83.6 8 56 8 28.1 28.1 8 56 8z"
  />
  <path
    fill="url(#faceGradient)"
    d="M59 36c13.3 0 24 10.7 24 24 0 13.2-10.6 24-23.6 24h-5.6c-3.1 0-5.8 2.5-5.8 5.6v7.4c-10-2.1-17-8.5-17-19.8V60c0-13.3 10.7-24 24-24z"
  />
  <path
    fill="#ffffff"
    d="M91.6 42.2l1.8 5.4 5.4 1.8-5.4 1.8-1.8 5.4-1.8-5.4-5.4-1.8 5.4-1.8 1.8-5.4z"
    opacity="0.9"
  />
  <path
    fill="#a8c7ff"
    d="M64 53c3.2 0 4.8 1.6 4.8 4.8 0 1.1-0.9 2-2 2H58c-1.1 0-2-0.9-2-2 0-3.2 1.6-4.8 4.8-4.8z"
  />
</svg>
